<?xml version="1.0" standalone="no"?><!DOCTYPE svg PUBLIC "-//W3C//DTD SVG 1.1//EN" "http://www.w3.org/Graphics/SVG/1.1/DTD/svg11.dtd"><svg t="1715218013392" class="icon" viewBox="0 0 1024 1024" version="1.1" xmlns="http://www.w3.org/2000/svg" p-id="7135" xmlns:xlink="http://www.w3.org/1999/xlink" width="16" height="16"><path d="M337.194667 132.992a32 32 0 0 1 9.813333 44.202667L133.930667 512l213.077333 334.805333a32 32 0 1 1-54.016 34.389334l-224-352a32 32 0 0 1 0-34.389334l224-352a32 32 0 0 1 44.202667-9.813333zM686.805333 132.992a32 32 0 0 1 44.202667 9.813333l224 352a32 32 0 0 1 0 34.389334l-224 352a32 32 0 1 1-54.016-34.389334L890.069333 512l-213.077333-334.805333a32 32 0 0 1 9.813333-44.202667z" fill="#000000" p-id="7136"></path></svg>