<?xml version="1.0" standalone="no"?><!DOCTYPE svg PUBLIC "-//W3C//DTD SVG 1.1//EN" "http://www.w3.org/Graphics/SVG/1.1/DTD/svg11.dtd"><svg t="1715388435498" class="icon" viewBox="0 0 1024 1024" version="1.1" xmlns="http://www.w3.org/2000/svg" p-id="14619" xmlns:xlink="http://www.w3.org/1999/xlink" width="16" height="16"><path d="M876.8 659.2L620.8 512l256-147.2c25.6-12.8 38.4-51.2 19.2-76.8-12.8-25.6-51.2-38.4-76.8-19.2l-256 147.2v-294.4C569.6 89.6 544 64 512 64s-57.6 25.6-57.6 57.6v294.4l-256-147.2c-19.2-19.2-57.6-6.4-70.4 19.2-12.8 25.6-6.4 64 19.2 76.8l256 147.2-256 147.2c-25.6 12.8-38.4 51.2-19.2 76.8 12.8 19.2 32 25.6 51.2 25.6 6.4 0 19.2 0 25.6-6.4l256-147.2v294.4c-6.4 32 19.2 57.6 51.2 57.6s57.6-25.6 57.6-57.6v-294.4l256 147.2c6.4 6.4 19.2 6.4 25.6 6.4 19.2 0 38.4-12.8 51.2-25.6 6.4-25.6 0-64-25.6-76.8z" opacity=".64" p-id="14620"></path></svg>