<?xml version="1.0" standalone="no"?><!DOCTYPE svg PUBLIC "-//W3C//DTD SVG 1.1//EN" "http://www.w3.org/Graphics/SVG/1.1/DTD/svg11.dtd"><svg t="1702394464527" class="icon" viewBox="0 0 1024 1024" version="1.1" xmlns="http://www.w3.org/2000/svg" p-id="19968" xmlns:xlink="http://www.w3.org/1999/xlink" width="100%" height="100%"><path d="M512 21.333333C241.450667 21.333333 21.333333 241.450667 21.333333 512S241.450667 1002.666667 512 1002.666667 1002.666667 782.549333 1002.666667 512 782.549333 21.333333 512 21.333333z m0 341.333334c82.346667 0 149.333333 66.986667 149.333333 149.333333s-66.986667 149.333333-149.333333 149.333333-149.333333-66.986667-149.333333-149.333333 66.986667-149.333333 149.333333-149.333333z m0 597.333333c-239.829333 0-435.669333-189.568-446.933333-426.666667H322.133333c10.752 95.744 91.264 170.666667 189.824 170.666667s179.072-74.922667 189.824-170.666667h257.066667c-11.178667 237.098667-207.018667 426.666667-446.848 426.666667z" p-id="19969"></path><path d="M512 405.333333c-58.794667 0-106.666667 47.872-106.666667 106.666667s47.872 106.666667 106.666667 106.666667 106.666667-47.872 106.666667-106.666667-47.872-106.666667-106.666667-106.666667z m0 170.666667c-35.285333 0-64-28.714667-64-64s28.714667-64 64-64 64 28.714667 64 64-28.714667 64-64 64z" p-id="19970"></path></svg>